<?xml version="1.0" encoding="UTF-8" standalone="no"?>
<svg
   xmlns:dc="http://purl.org/dc/elements/1.1/"
   xmlns:cc="http://creativecommons.org/ns#"
   xmlns:rdf="http://www.w3.org/1999/02/22-rdf-syntax-ns#"
   xmlns:svg="http://www.w3.org/2000/svg"
   xmlns="http://www.w3.org/2000/svg"
   xmlns:sodipodi="http://sodipodi.sourceforge.net/DTD/sodipodi-0.dtd"
   xmlns:inkscape="http://www.inkscape.org/namespaces/inkscape"
   inkscape:version="1.0 (4035a4fb49, 2020-05-01)"
   height="36mm"
   width="36mm"
   sodipodi:docname="logo-apps.svg"
   id="svg10"
   viewBox="0 0 136.06299 136.063"
   version="1.1">
  <metadata
     id="metadata16">
    <rdf:RDF>
      <cc:Work
         rdf:about="">
        <dc:format>image/svg+xml</dc:format>
        <dc:type
           rdf:resource="http://purl.org/dc/dcmitype/StillImage" />
        <dc:title></dc:title>
      </cc:Work>
    </rdf:RDF>
  </metadata>
  <defs
     id="defs14" />
  <sodipodi:namedview
     inkscape:current-layer="svg10"
     inkscape:window-maximized="1"
     inkscape:window-y="-9"
     inkscape:window-x="-9"
     inkscape:cy="64.203181"
     inkscape:cx="50.02965"
     inkscape:zoom="2.4127907"
     units="mm"
     fit-margin-bottom="0"
     fit-margin-right="0"
     fit-margin-left="-0.4"
     fit-margin-top="0"
     showgrid="false"
     id="namedview12"
     inkscape:window-height="1001"
     inkscape:window-width="1920"
     inkscape:pageshadow="2"
     inkscape:pageopacity="0"
     guidetolerance="10"
     gridtolerance="10"
     objecttolerance="10"
     borderopacity="1"
     bordercolor="#666666"
     pagecolor="#ffffff" />
  <g
     transform="translate(-17.91667,-17.5)"
     fill="#000000"
     id="g6"
     style="font-family:none;mix-blend-mode:normal;fill-rule:nonzero;stroke:none;stroke-width:1;stroke-linecap:butt;stroke-linejoin:miter;stroke-miterlimit:10;stroke-dasharray:none;stroke-dashoffset:0">
    <path
       d="m 39.41667,21.5 c -11.87517,0 -21.5,9.52344 -21.5,21.39502 v 3.58333 8.95833 73.56331 c 0,11.78928 9.71072,21.5 21.5,21.5 h 93.16667 c 11.78928,0 21.5,-9.71072 21.5,-21.5 V 55.43668 46.47835 42.89502 c 0,-11.87158 -9.62483,-21.39502 -21.5,-21.39502 z m 77.04166,14.22835 c 2.967,0 5.375,2.408 5.375,5.375 0,2.967 -2.408,5.375 -5.375,5.375 -2.967,0 -5.375,-2.40442 -5.375,-5.375 0,-2.967 2.408,-5.375 5.375,-5.375 z m 17.91667,0 c 2.967,0 5.375,2.408 5.375,5.375 0,2.967 -2.408,5.375 -5.375,5.375 -2.967,0 -5.375,-2.40442 -5.375,-5.375 0,-2.967 2.408,-5.375 5.375,-5.375 z M 32.25,60.81169 h 107.5 V 129 c 0,4.04189 -3.12478,7.16667 -7.16667,7.16667 H 39.41666 c -4.04188,0 -7.16667,-3.12478 -7.16667,-7.16667 z"
       id="path4" />
  </g>
</svg>
